<?xml version="1.0" encoding="utf-8"?>
<!-- Generator: Adobe Illustrator 24.0.2, SVG Export Plug-In . SVG Version: 6.00 Build 0)  -->
<svg version="1.1" id="Layer_1" xmlns="http://www.w3.org/2000/svg" xmlns:xlink="http://www.w3.org/1999/xlink" x="0px" y="0px"
	 viewBox="0 0 64 64" style="enable-background:new 0 0 64 64;" xml:space="preserve">
<style type="text/css">
	.st0{fill:#FFFFFF;}
</style>
<g id="Ellipsis">
	<path class="st0" d="M32,0C14.3,0,0,14.3,0,32s14.3,32,32,32s32-14.3,32-32S49.7,0,32,0z M32,62C15.5,62,2,48.5,2,32
		C2,15.5,15.5,2,32,2c16.5,0,30,13.5,30,30C62,48.5,48.5,62,32,62z"/>
	<path class="st0" d="M18,27c-2.8,0-5,2.2-5,5s2.2,5,5,5s5-2.2,5-5S20.8,27,18,27z M18,35c-1.7,0-3-1.3-3-3c0-1.7,1.3-3,3-3
		c1.7,0,3,1.3,3,3C21,33.7,19.7,35,18,35z"/>
	<path class="st0" d="M32,27c-2.8,0-5,2.2-5,5s2.2,5,5,5s5-2.2,5-5S34.8,27,32,27z M32,35c-1.7,0-3-1.3-3-3c0-1.7,1.3-3,3-3
		c1.7,0,3,1.3,3,3C35,33.7,33.7,35,32,35z"/>
	<path class="st0" d="M46,27c-2.8,0-5,2.2-5,5s2.2,5,5,5c2.8,0,5-2.2,5-5S48.8,27,46,27z M46,35c-1.7,0-3-1.3-3-3c0-1.7,1.3-3,3-3
		c1.7,0,3,1.3,3,3C49,33.7,47.7,35,46,35z"/>
</g>
</svg>
