<?xml version="1.0" encoding="utf-8"?>
<!-- Generator: Adobe Illustrator 24.0.2, SVG Export Plug-In . SVG Version: 6.00 Build 0)  -->
<svg version="1.1" id="Layer_1" xmlns="http://www.w3.org/2000/svg" xmlns:xlink="http://www.w3.org/1999/xlink" x="0px" y="0px"
	 viewBox="0 0 476.3 476.3" style="enable-background:new 0 0 476.3 476.3;" xml:space="preserve">
<style type="text/css">
	.st0{fill:#FFFFFF;}
</style>
<path class="st0" d="M476.2,119.1L357.2,0L206.9,134.7c-19.9-7.1-39.4-10.7-58.2-10.7c-31.6,0-58.7,10.4-78.3,30l-10.6,10.6
	l115.3,115.3L0,455l21.2,21.2l175.2-175.2l115.3,115.3l10.6-10.6c16.9-16.9,27.1-39.9,29.4-66.4c1.9-21.9-1.6-45.9-10.2-70
	L476.2,119.1z M434.9,120.3L323.7,244.3L232,152.5L356,41.3L434.9,120.3z M310.5,372.8l-207-207c12.4-7.7,27.8-11.8,45.2-11.8
	c16.6,0,34.8,3.7,53,10.7l109.8,109.8C326.4,312.8,325.9,348.2,310.5,372.8z"/>
</svg>
